<?xml version="1.0" encoding="utf-8"?>
<!-- Generator: Adobe Illustrator 19.0.0, SVG Export Plug-In . SVG Version: 6.00 Build 0)  -->
<svg version="1.1" id="Gill_sans_bold" xmlns="http://www.w3.org/2000/svg" xmlns:xlink="http://www.w3.org/1999/xlink" x="0px"
	 y="0px" viewBox="0 0 586.2 96.2" style="enable-background:new 0 0 586.2 96.2;" xml:space="preserve">
<style type="text/css">
	.st0{fill:#FFFFFF;}
</style>
<g>
	<path class="st0" d="M49.2,83.2c0.8,0,1.6-0.2,2.3-0.5c0.7-0.3,1.3-0.7,1.8-1.2c0.5-0.5,0.9-1.1,1.2-1.8c0.3-0.7,0.4-1.5,0.4-2.3v0
		c0-0.8-0.1-1.6-0.4-2.3c-0.3-0.7-0.7-1.3-1.2-1.9c-0.5-0.5-1.1-0.9-1.8-1.3c-0.7-0.3-1.5-0.5-2.3-0.5c-0.8,0-1.6,0.2-2.3,0.5
		c-0.7,0.3-1.3,0.7-1.8,1.2c-0.5,0.5-0.9,1.1-1.2,1.8c-0.3,0.7-0.4,1.5-0.4,2.3v0c0,0.8,0.1,1.6,0.4,2.3c0.3,0.7,0.7,1.3,1.2,1.9
		c0.5,0.5,1.1,1,1.8,1.3C47.7,83.1,48.4,83.2,49.2,83.2 M49.2,85.9c-1.3,0-2.5-0.2-3.5-0.7c-1.1-0.4-2-1.1-2.7-1.8
		c-0.8-0.8-1.4-1.7-1.8-2.7c-0.4-1-0.6-2.1-0.6-3.3v0c0-1.2,0.2-2.3,0.6-3.3c0.4-1,1-1.9,1.8-2.7c0.8-0.8,1.7-1.4,2.8-1.8
		c1.1-0.5,2.2-0.7,3.5-0.7c1.3,0,2.5,0.2,3.5,0.7c1.1,0.4,2,1.1,2.7,1.8c0.8,0.8,1.4,1.7,1.8,2.7c0.4,1,0.6,2.1,0.6,3.3v0
		c0,1.2-0.2,2.3-0.6,3.3c-0.4,1-1,1.9-1.8,2.7c-0.8,0.8-1.7,1.4-2.8,1.8C51.7,85.7,50.5,85.9,49.2,85.9"/>
	<path class="st0" d="M85.1,74.7c0-1-0.3-1.7-1-2.2c-0.7-0.5-1.5-0.7-2.6-0.7h-3.4v5.9h3.4c1.1,0,2-0.3,2.6-0.8
		C84.8,76.3,85.1,75.6,85.1,74.7L85.1,74.7z M88.1,74.7L88.1,74.7c0,1-0.2,1.8-0.5,2.5c-0.4,0.7-0.8,1.3-1.4,1.7
		c-0.6,0.5-1.3,0.8-2.1,1.1c-0.8,0.2-1.7,0.4-2.6,0.4h-3.3v3.8c0,0.8-0.7,1.4-1.5,1.4h-1.5v-1.4V70.6c0-0.8,0.7-1.4,1.5-1.4h5.1
		c1,0,1.8,0.1,2.6,0.4c0.8,0.3,1.5,0.6,2,1.1c0.5,0.5,1,1.1,1.3,1.7C87.9,73.1,88.1,73.9,88.1,74.7 M84.1,72.6
		c-0.7-0.5-1.5-0.7-2.6-0.7h-3.4v5.9h3.4c1.1,0,2-0.3,2.6-0.8c0.6-0.5,1-1.2,1-2.1v0C85.1,73.8,84.8,73,84.1,72.6 M85.1,74.7
		L85.1,74.7c0,0.9-0.3,1.6-1,2.2c-0.6,0.5-1.5,0.8-2.6,0.8h-3.4v-5.9h3.4c1.1,0,2,0.2,2.6,0.7C84.8,73,85.1,73.8,85.1,74.7"/>
	<path class="st0" d="M40.2,85.6h-2.7h0h0c-0.5,0-0.9-0.2-1.2-0.6L36.2,85l-3.6-5.1h-3.7v4.3c0,0.8-0.7,1.4-1.5,1.4H26v-1.4V70.6
		c0-0.8,0.7-1.4,1.5-1.4h6c1.1,0,2,0.1,2.8,0.4c0.8,0.3,1.5,0.7,2,1.2c0.4,0.5,0.8,1,1,1.6c0.2,0.6,0.4,1.3,0.4,2v0
		c0,1.3-0.4,2.4-1.1,3.3c-0.7,0.8-1.7,1.4-2.9,1.7l2.6,3.6l0.6,0.8L40.2,85.6z M36.7,74.6L36.7,74.6c0-0.9-0.3-1.6-0.9-2.1
		c-0.6-0.5-1.5-0.7-2.6-0.7h-4.3v5.5h4.3c1.1,0,1.9-0.2,2.5-0.7C36.4,76.1,36.7,75.4,36.7,74.6 M36.7,74.6L36.7,74.6
		c0-0.9-0.3-1.6-0.9-2.1c-0.6-0.5-1.5-0.7-2.6-0.7h-4.3v5.5h4.3c1.1,0,1.9-0.2,2.5-0.7C36.4,76.1,36.7,75.4,36.7,74.6 M35.7,76.6
		c-0.6,0.5-1.5,0.7-2.5,0.7h-4.3v-5.5h4.3c1.1,0,2,0.2,2.6,0.7c0.6,0.5,0.9,1.1,0.9,2v0C36.7,75.4,36.4,76.1,35.7,76.6"/>
	<path class="st0" d="M54.1,11.1l-11,0c0,0-3-0.1-4.6,1.3c-1.4,1.2-2.6,3.6-2.6,3.6L13.6,65.2h9.3l3.5-8c4.5-0.3,11-1.5,17.2-4.8
		c2.5-1.4,4.2-2.5,5.5-3.5l-0.8-2c-1.5,0.3-3.3,0.7-5.5,1.1c-4.1,0.8-8.9,1.2-12.5,0.7l11.1-25.2l10.6,27.5l5.6,14.2h17.9L54.1,11.1
		z"/>
	<path class="st0" d="M76.7,30.6c-0.1,0-0.7,0-0.7,0c-5.2,0.1-8.6,1.5-8.6,5.6c0,1.3,0.2,2.5,0.8,3.8l9.9,25.2h6.4V28l0,0
		C83,29.9,80.2,30.6,76.7,30.6"/>
	<path class="st0" d="M62.1,70.6v-1.4h-1.5c-0.8,0-1.5,0.6-1.5,1.4v8c0,1.2,0.2,2.2,0.5,3.1c0.3,0.9,0.8,1.7,1.4,2.3
		c0.6,0.6,1.4,1.1,2.2,1.4c0.9,0.3,1.9,0.5,2.9,0.5c1.1,0,2.1-0.2,3-0.5c0.9-0.3,1.6-0.8,2.3-1.4c0.6-0.6,1.1-1.4,1.4-2.3
		c0.3-0.9,0.5-2,0.5-3.2v-7.9v-1.4H72c-0.8,0-1.5,0.6-1.5,1.4v8c0,1.5-0.4,2.7-1.1,3.4c-0.7,0.8-1.8,1.1-3.1,1.1
		c-1.3,0-2.4-0.4-3.1-1.2c-0.7-0.8-1.1-2-1.1-3.5L62.1,70.6z"/>
	<path class="st0" d="M18.5,76.4c-0.8,0-1.5,0.6-1.5,1.4c0,0,0,1.1,0,1.1h0.5h1.9h1.8V82c-0.5,0.4-1.1,0.7-1.8,0.9
		c-0.7,0.2-1.4,0.3-2.2,0.3c-0.9,0-1.6-0.1-2.3-0.4c-0.7-0.3-1.3-0.7-1.8-1.2c-0.5-0.5-0.9-1.1-1.2-1.9c-0.3-0.7-0.4-1.5-0.4-2.4v0
		c0-0.8,0.1-1.5,0.4-2.2c0.3-0.7,0.7-1.3,1.1-1.8c0.5-0.5,1.1-0.9,1.7-1.3c0.7-0.3,1.4-0.5,2.1-0.5c0.5,0,1,0,1.4,0.1
		c0.4,0.1,0.8,0.2,1.2,0.3c0.3,0.1,0.6,0.3,1,0.5c0,0,0.1,0,0.1,0.1c0.2,0.1,0.5,0.2,0.7,0.2c0.4,0,0.8-0.2,1-0.4l0.2-0.2l0.9-1
		c-0.3-0.3-0.6-0.5-1-0.7c-0.1-0.1-0.2-0.2-0.3-0.2c-0.2-0.1-0.3-0.2-0.5-0.3c-0.3-0.2-0.6-0.3-1-0.4c-0.5-0.2-1.1-0.3-1.7-0.4
		c-0.6-0.1-1.3-0.2-2-0.2c-1.3,0-2.4,0.2-3.5,0.7c-1.1,0.5-2,1.1-2.7,1.8c-0.8,0.8-1.4,1.7-1.8,2.7c-0.4,1-0.6,2.1-0.6,3.3v0
		c0,1.2,0.2,2.3,0.6,3.3c0.4,1,1,1.9,1.8,2.7c0.8,0.8,1.7,1.4,2.7,1.8c1.1,0.4,2.3,0.6,3.6,0.6c0.7,0,1.4-0.1,2.1-0.2
		c0.7-0.1,1.3-0.3,1.9-0.6c0.6-0.2,1.1-0.5,1.6-0.8c0.5-0.3,1-0.6,1.4-1v-6.9H18.5z"/>
	<g>
		<line class="st0" x1="106.1" y1="11.1" x2="106.1" y2="85.6"/>
		<rect x="105.6" y="11.1" class="st0" width="1" height="74.5"/>
	</g>
	<rect x="104" y="11.1" class="st0" width="4.3" height="74.5"/>
	<path class="st0" d="M75.1,16.6L75.1,16.6c-5.3,0-8.6,1.3-8.7,5.4c0,4.5,3.8,5.9,8.9,6c5.2,0,9-1.3,9-5.8v-5.6H75.1z"/>
	<g>
		<path class="st0" d="M158.3,42.2H150l-2.6-6.2h-13.9l-2.3,6.2H123l12.5-31.1h9L158.3,42.2z M140.1,18.6l-4.6,12.1h9.6L140.1,18.6z
			"/>
		<path class="st0" d="M178.2,11.1c7.1,0,10.3,5,10.3,9.2c0,4.4-3.1,9.4-10.3,9.4h-6.2v12.5h-7.8V11.1H178.2z M172.1,24.1h3.6
			c3.6,0,4.8-1.3,4.8-3.6c0-2.6-1.5-3.6-5.7-3.6h-2.7V24.1z"/>
		<path class="st0" d="M210.2,11.1c7.1,0,10.3,5,10.3,9.2c0,4.4-3.1,9.4-10.3,9.4h-6.2v12.5h-7.8V11.1H210.2z M204.1,24.1h3.6
			c3.6,0,4.8-1.3,4.8-3.6c0-2.6-1.5-3.6-5.7-3.6h-2.7V24.1z"/>
		<path class="st0" d="M242,11.1c6.4,0,10.2,4.3,10.2,8.9c0,3.4-1.8,6-5.3,7.6c3.2,1.6,4.2,5.4,8.5,14.5h-8.5
			c-3.3-6.7-4.6-12.6-8.8-12.6h-2.2v12.6h-7.8V11.1H242z M235.8,23.9h4.1c2.1,0,4.2-0.9,4.2-3.6c0-2.3-1.5-3.5-4.4-3.5h-3.9V23.9z"
			/>
		<path class="st0" d="M284.1,42.2h-22.9V11.1h22.6v5.7h-14.9v6.5h14.2v5.7h-14.2v7.5h15.2V42.2z"/>
		<path class="st0" d="M323.6,42.2h-6.5l-17.2-19.9v19.9h-7.8V11.1h7.1l16.6,19v-19h7.8V42.2z"/>
		<path class="st0" d="M360.8,16.8h-11.3v25.4h-7.8V16.8h-11.3v-5.7h30.3V16.8z"/>
		<path class="st0" d="M375.6,42.2h-7.8V11.1h7.8V42.2z"/>
		<path class="st0" d="M413.9,39.6c-4.3,2.2-7.6,3.1-12.2,3.1c-12.1,0-18.1-7.8-18.1-15.9c0-8.3,6.8-16.1,18.7-16.1
			c4.3,0,8.2,0.9,11.3,2.7v6.9c-3.4-1.9-6.9-3.2-10.7-3.2c-6.6,0-11.3,3.9-11.3,9.4c0,5.6,4.6,9.5,11.1,9.5c4.1,0,6.8-1.3,11.3-3.4
			V39.6z"/>
		<path class="st0" d="M445.2,42.2h-22.9V11.1h22.6v5.7H430v6.5h14.2v5.7H430v7.5h15.2V42.2z"/>
		<path class="st0" d="M500,42.2h-8.3l-2.6-6.2h-13.9l-2.3,6.2h-8.2l12.5-31.1h9L500,42.2z M481.8,18.6l-4.6,12.1h9.6L481.8,18.6z"
			/>
		<path class="st0" d="M537.2,42.2h-6.5l-17.2-19.9v19.9h-7.8V11.1h7.1l16.6,19v-19h7.8V42.2z"/>
		<path class="st0" d="M560,11.1c11.4,0,17.2,7.1,17.2,15.6c0,8.9-5.7,15.5-18.1,15.5h-12.9V11.1H560z M554,36.5h5.1
			c7.8,0,10.1-5.3,10.1-9.9c0-5.3-2.9-9.9-10.2-9.9h-5V36.5z"/>
		<path class="st0" d="M154.4,59.8h-11.3v25.4h-7.8V59.8h-11.3v-5.7h30.3V59.8z"/>
		<path class="st0" d="M175.8,54.1c6.4,0,10.2,4.3,10.2,8.9c0,3.4-1.8,6-5.3,7.6c3.2,1.6,4.2,5.4,8.5,14.5h-8.5
			c-3.3-6.7-4.6-12.6-8.8-12.6h-2.2v12.6h-7.8V54.1H175.8z M169.6,66.9h4.1c2.1,0,4.2-0.9,4.2-3.6c0-2.3-1.5-3.5-4.4-3.5h-3.9V66.9z
			"/>
		<path class="st0" d="M227.5,85.3h-8.3l-2.6-6.2h-13.9l-2.3,6.2h-8.2l12.5-31.1h9L227.5,85.3z M209.3,61.6l-4.6,12.1h9.6
			L209.3,61.6z"/>
		<path class="st0" d="M241.9,85.3h-7.8V54.1h7.8V85.3z"/>
		<path class="st0" d="M283.3,85.3h-6.5l-17.2-19.9v19.9h-7.8V54.1h7.1l16.6,19v-19h7.8V85.3z"/>
		<path class="st0" d="M316,85.3h-22.9V54.1h22.6v5.7h-14.9v6.5H315v5.7h-14.2v7.5H316V85.3z"/>
		<path class="st0" d="M347.7,85.3h-22.9V54.1h22.6v5.7h-14.9v6.5h14.2v5.7h-14.2v7.5h15.2V85.3z"/>
		<path class="st0" d="M400.8,82.6c-4.3,2.2-7.6,3.1-12.2,3.1c-12.1,0-18.1-7.8-18.1-15.9c0-8.3,6.8-16.1,18.7-16.1
			c4.3,0,8.2,0.9,11.3,2.7v6.9c-3.4-1.9-6.9-3.2-10.7-3.2c-6.6,0-11.3,3.9-11.3,9.4c0,5.6,4.6,9.5,11.1,9.5c4.1,0,6.8-1.3,11.3-3.4
			V82.6z"/>
		<path class="st0" d="M432.7,85.3h-22.9V54.1h22.6v5.7h-14.9v6.5h14.2v5.7h-14.2v7.5h15.2V85.3z"/>
		<path class="st0" d="M472.9,85.3h-6.5l-17.2-19.9v19.9h-7.8V54.1h7.1l16.6,19v-19h7.8V85.3z"/>
		<path class="st0" d="M510.7,59.8h-11.3v25.4h-7.8V59.8h-11.3v-5.7h30.3V59.8z"/>
		<path class="st0" d="M532.1,54.1c6.4,0,10.2,4.3,10.2,8.9c0,3.4-1.8,6-5.3,7.6c3.2,1.6,4.2,5.4,8.5,14.5h-8.5
			c-3.3-6.7-4.6-12.6-8.8-12.6h-2.2v12.6h-7.8V54.1H532.1z M525.9,66.9h4.1c2.1,0,4.2-0.9,4.2-3.6c0-2.3-1.5-3.5-4.4-3.5h-3.9V66.9z
			"/>
		<path class="st0" d="M574.8,85.3h-22.9V54.1h22.6v5.7h-14.9v6.5h14.2v5.7h-14.2v7.5h15.2V85.3z"/>
	</g>
</g>
</svg>
